<svg width="275" height="38" viewBox="0 0 275 38" fill="none" xmlns="http://www.w3.org/2000/svg">
<path d="M112.951 8.75536C111.47 8.50843 109.971 8.38616 108.47 8.38987C107.053 8.36378 105.641 8.55466 104.283 8.95585C103.134 9.30501 102.075 9.93871 101.191 10.8073C100.275 11.7359 99.5417 12.8565 99.0362 14.1011C98.4112 15.6595 97.9492 17.2784 97.6576 18.9319C96.961 22.6464 97.2476 25.3626 98.5102 27.0056C99.7729 28.6486 101.939 29.4818 104.95 29.4818C106.44 29.487 107.928 29.3713 109.398 29.1361C110.842 28.8962 112.267 28.56 113.665 28.1297L113.77 28.0983L117.177 9.82847L117.025 9.77342C115.697 9.32262 114.334 8.98211 112.951 8.75536ZM103.445 22.6543C103.516 21.4299 103.675 20.2122 103.92 19.0105C104.142 17.7587 104.443 16.5221 104.82 15.3078C105.065 14.5029 105.433 13.7482 105.908 13.0751C106.262 12.5849 106.733 12.2073 107.269 11.9826C107.873 11.7597 108.515 11.653 109.159 11.6681C109.413 11.6681 109.7 11.6681 110.015 11.7033C110.241 11.7201 110.466 11.7556 110.686 11.8096L108.045 26.0465C107.807 26.1089 107.564 26.1549 107.319 26.1841C107.044 26.2183 106.766 26.2367 106.489 26.2391C105.882 26.2612 105.278 26.1554 104.714 25.9285C104.272 25.7247 103.922 25.3386 103.742 24.8554C103.49 24.1506 103.389 23.4007 103.445 22.6543Z" fill="#2A2A29"/>
<path d="M77.7681 8.42928C77.5272 8.40227 77.2849 8.38911 77.0424 8.38986H76.364C74.6057 8.38845 72.8506 8.5371 71.1177 8.8342C69.5191 9.09996 67.9503 9.52124 66.4337 10.092L66.3357 10.1313L62.7546 28.9397H68.8791L72.003 12.5801C72.7542 12.5919 73.5041 12.6484 74.2487 12.7492C75.0086 12.8421 75.7588 13.0012 76.491 13.2248L76.6651 13.2798L77.9931 8.45294L77.7681 8.42928Z" fill="#2A2A29"/>
<path d="M88.0468 8.38968C86.6246 8.36473 85.2068 8.55556 83.8418 8.95566C82.6833 9.30524 81.6113 9.92965 80.7032 10.7836C79.776 11.7012 79.0347 12.8174 78.5263 14.0617C77.8911 15.6169 77.4335 17.2387 77.1622 18.8965C76.5164 22.556 76.7994 25.2603 78.0148 26.9426C79.2303 28.6249 81.3999 29.4818 84.4984 29.4818C85.9251 29.5051 87.3472 29.3156 88.7181 28.9198C89.8833 28.5692 90.9624 27.9437 91.8781 27.0881C92.802 26.1747 93.543 25.0656 94.0551 23.8294C94.6955 22.2696 95.1522 20.6405 95.4157 18.9751C96.087 15.3196 95.8075 12.6113 94.5812 10.9289C93.3549 9.24667 91.1707 8.38968 88.0468 8.38968ZM82.902 22.7525C82.9859 21.4812 83.1508 20.2177 83.3955 18.9711C83.6204 17.6876 83.9208 16.4184 84.2953 15.1702C84.5355 14.3464 84.8741 13.5545 85.3039 12.8118C85.5777 12.3207 85.9638 11.9145 86.425 11.6325C86.8251 11.4167 87.2729 11.3045 87.7275 11.3063C88.1352 11.2908 88.5388 11.3998 88.8921 11.6207C89.2411 11.8976 89.485 12.303 89.5779 12.7607C89.7514 13.5261 89.8028 14.314 89.7302 15.0954C89.6361 16.3664 89.4653 17.6304 89.2187 18.8808C88.9955 20.1647 88.695 21.434 88.3189 22.6817C88.0818 23.5066 87.743 24.2988 87.3103 25.0401C87.036 25.5295 86.6515 25.9353 86.1928 26.2194C85.7913 26.4345 85.3421 26.5453 84.8866 26.5416C84.4857 26.5581 84.0889 26.4489 83.7438 26.2273C83.4033 25.9462 83.1655 25.5439 83.0725 25.0912C82.897 24.3249 82.8395 23.5362 82.902 22.7525Z" fill="#2A2A29"/>
<path d="M220.218 11.8294C219.974 11.0228 219.506 10.3183 218.876 9.81287C218.171 9.2711 217.367 8.89857 216.518 8.72018C215.455 8.48684 214.369 8.37607 213.281 8.39003C211.928 8.36797 210.58 8.56578 209.29 8.97572C208.163 9.34628 207.127 9.98548 206.257 10.8467C205.35 11.7731 204.624 12.8863 204.12 14.1209C203.495 15.6557 203.053 17.2587 202.803 18.8967C202.484 20.4992 202.393 22.1389 202.535 23.7669C202.642 24.9674 203.061 26.1102 203.747 27.0608C204.454 27.9502 205.388 28.594 206.432 28.9121C207.744 29.3193 209.114 29.5118 210.488 29.4821C211.793 29.4907 213.094 29.335 214.367 29.0182C215.482 28.7384 216.557 28.3184 217.567 27.7683L217.701 27.6937L216.783 24.4037L216.594 24.4901C215.894 24.8269 215.173 25.1066 214.436 25.3274C213.683 25.5378 212.905 25.6397 212.124 25.63C211.545 25.6442 210.969 25.5496 210.426 25.3509C209.994 25.1867 209.615 24.8888 209.338 24.494C209.035 24.0263 208.839 23.4874 208.767 22.9218C208.667 22.1388 208.667 21.3463 208.767 20.5633C209.436 20.5633 210.175 20.5633 210.974 20.524C211.838 20.4965 212.817 20.4218 213.877 20.2921C214.676 20.2015 215.468 20.045 216.246 19.8244C216.935 19.6293 217.587 19.3062 218.172 18.8693C218.735 18.4428 219.208 17.8906 219.558 17.2498C219.957 16.4842 220.218 15.6537 220.328 14.797C220.52 13.8126 220.483 12.7969 220.218 11.8294ZM209.262 17.466C209.459 16.4933 209.712 15.5351 210.019 14.5965C210.236 13.909 210.533 13.2493 210.905 12.6311C211.152 12.2198 211.483 11.8755 211.873 11.625C212.203 11.4288 212.578 11.3243 212.962 11.3223C213.208 11.3017 213.456 11.3437 213.684 11.4446C213.913 11.5456 214.116 11.7029 214.279 11.904C214.576 12.2971 214.643 13.0439 214.489 14.1328C214.337 15.2215 214.022 16.0195 213.571 16.4598C212.949 16.9738 212.198 17.2724 211.417 17.3166C210.999 17.3677 210.582 17.4031 210.182 17.4305C209.874 17.4502 209.563 17.4621 209.262 17.466Z" fill="#2A2A29"/>
<path d="M203.507 8.96766H199.247L199.73 6.70373C199.955 5.5912 200.256 4.82079 200.623 4.41207C200.831 4.2037 201.077 4.04348 201.345 3.94154C201.612 3.83947 201.895 3.79751 202.18 3.81849C202.573 3.81682 202.964 3.86705 203.344 3.96787C203.661 4.04869 203.971 4.16062 204.269 4.30197L204.439 4.38447L205.604 1.34619L205.466 1.25961C204.855 0.898226 204.205 0.608081 203.528 0.394864C202.608 0.114823 201.649 -0.0178005 200.687 0.001915C198.667 0.001915 197.082 0.473567 195.971 1.40913C194.861 2.34469 194.095 3.89339 193.693 6.00414L193.116 8.98751L190.771 9.33344L190.166 12.36H192.478L189.379 28.6959C189.157 29.944 188.817 31.1681 188.362 32.3516C187.865 33.5306 187.18 34.6055 186.338 35.5276L186.236 35.6415L187.706 38L187.833 37.9606C190.01 37.2845 191.73 36.2036 192.941 34.7453C194.153 33.287 195.009 31.2785 195.481 28.7707L198.612 12.3443H202.799L203.507 8.96766Z" fill="#2A2A29"/>
<path d="M188.167 13.2915L189.492 8.45278L189.271 8.42927C189.036 8.40272 188.799 8.38956 188.563 8.38985H187.87C186.11 8.38819 184.354 8.53679 182.62 8.83404C181.021 9.10031 179.452 9.52162 177.936 10.092L177.837 10.1313L174.257 28.9396H180.381L183.505 12.5801C184.256 12.5919 185.006 12.6484 185.751 12.749C186.512 12.8417 187.263 13.0009 187.997 13.2248L188.167 13.2915Z" fill="#2A2A29"/>
<path d="M133.461 0.461914L131.868 8.81465C131.346 8.70241 130.821 8.60536 130.293 8.52364C129.722 8.43601 129.145 8.39135 128.566 8.39003C127.265 8.36921 125.968 8.56037 124.728 8.95601C123.628 9.32136 122.62 9.95464 121.782 10.8074C120.894 11.7502 120.181 12.8682 119.681 14.1014C119.056 15.6597 118.594 17.2787 118.302 18.9322C117.609 22.6467 117.896 25.3627 119.159 27.0058C120.421 28.6488 122.58 29.4821 125.584 29.4821C127.074 29.4872 128.561 29.3715 130.032 29.1362C131.474 28.8968 132.899 28.5606 134.295 28.13L134.404 28.0986L139.618 0.465856L133.461 0.461914ZM127.924 26.1842C127.055 26.3415 126.163 26.2535 125.334 25.9288C124.893 25.722 124.544 25.337 124.361 24.8557C124.114 24.1499 124.018 23.4 124.078 22.6546C124.146 21.428 124.305 20.2096 124.554 19.0108C124.774 17.7585 125.074 16.5217 125.453 15.3081C125.691 14.5038 126.053 13.749 126.524 13.0754C126.877 12.5855 127.346 12.2079 127.881 11.9827C128.485 11.7602 129.127 11.6535 129.771 11.6682C130.027 11.6682 130.314 11.68 130.631 11.7037C130.857 11.7211 131.082 11.7566 131.302 11.8097L128.625 26.0467C128.394 26.1078 128.16 26.1538 127.924 26.1842Z" fill="#2A2A29"/>
<path d="M168.263 8.9676L164.953 26.2941C164.591 26.3373 164.26 26.3728 163.941 26.3924C163.623 26.4121 163.216 26.4317 162.853 26.4317C161.812 26.4317 161.115 26.1644 160.784 25.6456C160.455 25.1267 160.404 24.1559 160.655 22.8312L163.255 8.9676H157.087L154.664 21.8956C154.181 24.4113 154.482 26.3256 155.564 27.5912C156.645 28.8569 158.651 29.478 161.554 29.478C163.087 29.4721 164.617 29.3406 166.129 29.0849C167.669 28.8273 169.193 28.4795 170.693 28.0433L170.803 28.008L174.431 8.95972L168.263 8.9676Z" fill="#2A2A29"/>
<path d="M150.723 8.87727C149.643 8.54159 148.517 8.37713 147.387 8.38984C145.209 8.38984 143.482 8.87332 142.274 9.8324C141.026 10.8468 140.186 12.3431 139.93 14.0107C139.703 15.0409 139.723 16.1104 139.988 17.1316C140.223 17.9012 140.622 18.6 141.152 19.1717C141.662 19.7103 142.248 20.1575 142.887 20.4964C143.504 20.8265 144.092 21.1606 144.633 21.4908C145.106 21.7672 145.534 22.1241 145.903 22.5481C146.048 22.7319 146.15 22.9501 146.203 23.1851C146.255 23.42 146.255 23.6652 146.203 23.9003C146.172 24.1465 146.096 24.3849 145.979 24.6033C145.864 24.8163 145.708 25.0048 145.521 25.1581C145.14 25.4648 144.476 25.6219 143.551 25.6219C142.741 25.6204 141.937 25.4795 141.175 25.2053C140.425 24.9415 139.704 24.5989 139.026 24.1833L138.856 24.0773L137.35 27.5165L137.488 27.6108C138.441 28.2113 139.468 28.66 140.54 28.9434C141.791 29.302 143.087 29.4833 144.389 29.4818C146.428 29.4818 148.1 29.0181 149.356 28.1022C150.612 27.1864 151.45 25.7164 151.813 23.747C152.036 22.7478 152.015 21.7095 151.751 20.7204C151.516 19.9621 151.116 19.2758 150.585 18.7197C150.067 18.1856 149.479 17.7391 148.837 17.395C148.238 17.0742 147.649 16.736 147.07 16.3809C146.595 16.0978 146.165 15.7439 145.797 15.3314C145.645 15.1545 145.536 14.9441 145.48 14.7174C145.423 14.487 145.42 14.2466 145.47 14.0146C145.497 13.7653 145.571 13.5233 145.687 13.3014C145.803 13.0819 145.959 12.89 146.145 12.7372C146.669 12.3986 147.275 12.2434 147.884 12.293C148.637 12.2851 149.387 12.3992 150.104 12.6309C150.704 12.8207 151.288 13.0667 151.848 13.3661L152.019 13.4644L153.405 10.1114L153.267 10.025C152.47 9.5392 151.615 9.15371 150.723 8.87727Z" fill="#2A2A29"/>
<path d="M272.892 22.8232C270.541 22.8743 268.176 25.221 266.043 26.133C263.035 27.4222 259.511 27.1313 258.957 23.1456C258.867 22.4931 258.86 21.0623 259.159 20.3942C260.096 18.303 261.221 19.3171 262.81 18.8926C264.048 18.5585 265.35 18.2598 265.585 16.5656C265.988 13.7512 261.98 12.8904 260.144 12.9219C257.24 12.9768 254.701 14.6553 252.499 16.5459C251.07 17.7723 249.788 19.1795 248.435 20.5003C247.082 21.8209 244.081 25.3939 241.904 22.8037C240.942 21.648 241.179 19.4939 241.43 18.1497C241.941 15.8098 243.085 13.6887 244.716 12.0572C247.285 9.48633 249.85 9.69864 252.901 8.78279C254.429 8.32691 255.441 7.21057 254.567 5.36311C253.297 2.66667 248.631 1.18089 246.164 0.662077C242.809 -0.0524401 239.34 0.179021 236.092 1.33422C227.479 4.40403 223.393 13.4721 221.492 22.4577C221.046 24.5724 219.391 28.397 222.026 29.1831C224.104 29.8042 226.078 29.2657 226.742 27.1352C226.758 27.103 226.769 27.0685 226.775 27.033C226.777 27.0069 226.777 26.9806 226.775 26.9545C227.522 21.2668 228.882 15.3786 232.239 10.7954C235.359 6.56983 240.581 4.32547 245.279 5.38676C243.484 6.30669 241.886 7.62281 240.588 9.25064C237.271 13.366 234.521 20.7243 237.482 25.8539C239.619 29.5645 243.758 29.4544 247.057 27.7366C249.374 26.526 251.693 23.3736 254.167 20.9876C254.112 21.4193 254.08 21.8536 254.07 22.2886C253.932 29.926 260.1 32.1155 265.901 30.0833C268.176 29.2971 272.432 27.6933 273.978 25.4608C275.027 23.9356 274.642 22.7997 272.892 22.8232Z" fill="#2A2A29"/>
<path d="M39.796 4.20314L35.8515 4.06573C35.604 4.06573 35.5034 4.06573 35.5034 4.41799C35.5034 5.2771 35.5034 5.2771 36.2769 5.2771C37.6536 5.2771 39.038 5.19966 40.4224 5.33722C41.0983 5.38354 41.7446 5.66287 42.2709 6.13621C45.6087 9.15591 48.6803 12.5217 51.4437 16.1879C52.572 17.7761 53.2671 19.6901 53.4469 21.7034C53.6416 23.2994 53.7244 24.907 53.6944 26.5145C53.6984 27.2734 53.5916 28.0288 53.3773 28.7568C53.3078 28.9458 53.3773 28.9888 53.5088 29.0747C53.7319 29.1693 53.9126 29.3571 54.0123 29.598C54.1123 29.8416 54.1229 30.1126 54.0424 30.3633L53.9109 31.2912C53.9049 31.4547 53.868 31.6157 53.8023 31.7656C53.7387 31.9112 53.6466 32.0425 53.5314 32.1518C53.4206 32.2567 53.2883 32.3362 53.1436 32.3847C53.0023 32.4316 52.852 32.4455 52.7045 32.4252H48.9069C48.6826 32.4252 48.6207 32.3479 48.6054 32.0901C48.534 30.6441 47.9857 29.2778 47.0652 28.252C46.1449 27.2264 44.9166 26.6129 43.615 26.529C42.3134 26.4451 41.0295 26.8965 40.0083 27.797C38.9873 28.6976 38.3004 29.9842 38.0789 31.4114C38.0326 31.6949 38.1331 32.1073 37.9319 32.2706C37.7309 32.4338 37.3906 32.3222 37.1044 32.3222H15.7038C15.348 32.3222 15.2783 32.2018 15.2397 31.8409C15.1617 30.7469 14.7982 29.7018 14.1938 28.8336C13.5895 27.9654 12.7702 27.3117 11.8365 26.9527C10.9157 26.5304 9.90303 26.4202 8.92593 26.6357C7.94884 26.8513 7.05101 27.3831 6.34522 28.164C5.84006 28.6678 5.43008 29.2781 5.13949 29.9595C4.84861 30.641 4.68276 31.3799 4.65136 32.1331C4.65136 32.3737 4.55858 32.4338 4.35753 32.4252H1.0937C0.940019 32.4358 0.786101 32.4083 0.645561 32.3453C0.50072 32.2798 0.372907 32.1819 0.272041 32.059C0.166744 31.9309 0.0896501 31.782 0.045789 31.622C0.000546576 31.4585 -0.0113279 31.2876 0.0108727 31.1194V30.0712C-0.0170921 29.8725 0.019322 29.6701 0.114777 29.4937C0.209529 29.3208 0.356234 29.1907 0.528986 29.1262C0.985291 28.9716 0.900253 28.6537 0.861676 28.31C0.650318 26.4455 0.500668 24.5745 0.412973 22.7001C0.229743 19.1852 0.30989 15.6615 0.652741 12.1586C0.785818 10.5769 1.04447 9.00842 1.42625 7.46782C1.53776 6.79525 1.87383 6.19407 2.36702 5.78479C2.86035 5.37537 3.47449 5.18798 4.08679 5.25992H7.18068C7.43594 5.25992 7.49774 5.1998 7.49774 4.91625C7.49774 4.05714 7.49774 4.05714 6.72438 4.05714L0.892791 4.29761C0.761151 4.29761 0.567844 4.41799 0.506036 4.18596C0.501888 4.09016 0.526927 3.99536 0.57784 3.9141C0.625761 3.83682 0.698625 3.77821 0.784381 3.74796C1.43216 3.36445 2.13697 3.11412 2.865 3.00895C3.61681 2.85769 4.37241 2.72592 5.13104 2.61375C5.39404 2.61375 5.46359 2.47633 5.37081 2.19278C5.27957 1.8415 5.12189 1.51585 4.90859 1.23737C4.69529 0.958882 4.43102 0.734038 4.13339 0.577759C4.01738 0.526088 3.87813 0.508912 3.87813 0.302793C3.87813 0.0965335 4.08693 0.131027 4.21068 0.0879452C4.8213 -0.0814271 5.46725 0.0155783 6.01549 0.35925C6.56359 0.702782 6.97231 1.26679 7.15745 1.93513C7.24249 2.23586 7.33541 2.33033 7.6215 2.29598C13.6128 1.61015 19.6459 1.36029 25.6734 1.54838C27.5528 1.60005 29.4322 1.60005 31.3116 1.68593C34.7094 1.73905 38.0975 2.06372 41.4436 2.65683C42.0563 2.76841 42.6535 2.95299 43.2223 3.20662C43.4218 3.29489 43.6092 3.41344 43.7793 3.55888C43.9804 3.71347 44.1659 3.94549 44.0809 4.22905C43.9958 4.51246 43.7406 4.34928 43.5704 4.34069C42.3097 4.34069 41.0491 4.25481 39.7962 4.21173L39.796 4.20314ZM26.6476 19.2892H1.06273C0.962201 19.2892 0.807471 19.3753 0.822958 19.59C0.915881 20.7326 0.877022 21.8839 0.946714 23.0264C1.04724 24.8564 1.20971 26.6777 1.37979 28.499C1.37979 28.8426 1.51129 28.9888 1.85158 28.9716H4.62813C4.75912 28.9858 4.8913 28.9594 5.00686 28.8961C5.12714 28.8296 5.22639 28.7308 5.29337 28.6108C5.85654 27.7424 6.6109 27.0494 7.48451 26.598C8.35798 26.1466 9.32128 25.9522 10.282 26.0334C11.4852 26.1 12.6402 26.5808 13.5867 27.409C14.5331 28.2371 15.2242 29.3716 15.5645 30.6555C15.6651 31.0249 15.5645 31.5575 15.8739 31.7293C16.223 31.8266 16.5867 31.8412 16.9412 31.7722H37.1353C37.4602 31.7722 37.5762 31.7035 37.6381 31.3083C37.82 29.9902 38.3978 28.7791 39.2778 27.8719C39.8756 27.2168 40.5945 26.714 41.3844 26.3982C42.1746 26.0824 43.0171 25.9611 43.8535 26.0429C44.6899 26.1245 45.5005 26.4072 46.2288 26.8714C46.9571 27.3356 47.5859 27.9702 48.0716 28.731C48.1266 28.8268 48.2061 28.9062 48.3019 28.9612C48.3941 29.0136 48.4995 29.0381 48.6054 29.0317H52.0702C52.8437 29.0317 52.9288 28.963 53.0758 28.0866C53.0796 28.0581 53.0796 28.0292 53.0758 28.0007C53.2819 26.5228 53.3027 25.025 53.1376 23.542C53.0524 22.2876 52.874 21.0413 52.604 19.8134C52.5188 19.4182 52.3719 19.2806 51.9775 19.2806C43.5367 19.2978 35.0961 19.3008 26.6554 19.2892H26.6476ZM26.5008 18.7309H51.7764C52.2327 18.7309 52.2327 18.7309 52.0238 18.2669C51.7129 17.5773 51.3236 16.9258 50.8636 16.3253C48.3115 12.9992 45.5317 9.89717 42.5493 7.04685C41.6783 6.19041 40.5403 5.74636 39.3783 5.80971H3.94754C3.51461 5.78719 3.08731 5.92756 2.73505 6.20815C2.38265 6.48875 2.12598 6.89324 2.00631 7.35617C1.81357 8.04267 1.66377 8.74296 1.55775 9.45241C1.09385 12.333 0.861081 15.2462 0.861676 18.1639C0.861676 18.748 0.861676 18.748 1.37979 18.748L26.5008 18.7309ZM43.6244 4.0142C43.2446 3.54846 42.7304 3.24449 42.1703 3.15509C39.8036 2.60318 37.3902 2.27524 34.9621 2.1756C33.1522 2.04678 31.3501 1.97807 29.5481 1.90937C28.0477 1.85784 26.5394 1.85784 25.039 1.83193C22.7187 1.83193 20.3443 1.74605 17.993 1.87501C16.918 1.93513 15.8429 1.93513 14.7757 2.00384C14.2574 2.00384 13.7314 2.00384 13.2288 2.08972C11.0941 2.2788 8.95156 2.41621 6.82476 2.69118C5.13133 2.87429 3.45535 3.19318 1.813 3.64476C1.55817 3.67602 1.32066 3.80343 1.14002 4.00561C2.97313 3.91973 4.73654 3.81653 6.5077 3.74796L11.0477 3.56747C13.2211 3.4385 15.3943 3.4385 17.56 3.38697C20.3675 3.38697 23.175 3.33544 25.9825 3.42991C28.125 3.50735 30.2674 3.52453 32.4174 3.619C34.5676 3.71347 36.5708 3.75641 38.6513 3.81653H39.6954L43.6244 4.0142ZM21.4966 5.25992H33.7865C34.4903 5.25992 34.4748 5.25992 34.498 4.46093C34.498 4.08291 34.3975 3.99702 34.0803 3.98843C29.9502 3.86806 25.8202 3.72206 21.7056 3.70488C17.5909 3.6877 13.3603 3.84229 9.19147 3.98843C8.5572 3.98843 8.58817 3.98843 8.54946 4.74448C8.54946 5.19122 8.64998 5.26851 9.02899 5.26851C13.1591 5.25133 17.328 5.25992 21.4966 5.25992ZM48.5047 29.5128C48.8029 30.1703 48.999 30.8791 49.0847 31.6091C49.0847 31.798 49.1544 31.8668 49.3245 31.8668H52.7895C52.8635 31.8764 52.9387 31.8687 53.0092 31.8443C53.0814 31.8192 53.1472 31.7785 53.2019 31.7252C53.2589 31.6696 53.304 31.6031 53.3347 31.5297C53.3664 31.4541 53.3835 31.3731 53.3851 31.2912C53.3851 30.9475 53.4856 30.6125 53.5321 30.2689C53.6016 29.7533 53.4391 29.53 52.952 29.5214L48.5047 29.5128ZM4.77512 29.5128H1.12453C0.691459 29.5128 0.521383 29.7275 0.513498 30.2002V31.1795C0.513498 31.6262 0.691459 31.8497 1.10144 31.8497H3.96303C4.09453 31.8497 4.17957 31.8497 4.19506 31.6434C4.28143 30.9083 4.47693 30.1902 4.77512 29.5128Z" fill="#070606"/>
<path d="M47.9646 32.451C47.9646 33.8181 47.4756 35.1291 46.6054 36.096C45.735 37.0626 44.5547 37.6057 43.3239 37.6057C42.083 37.6057 40.8928 37.0581 40.0152 36.0833C39.1377 35.1086 38.6447 33.7866 38.6447 32.4081C38.6447 31.0296 39.1377 29.7074 40.0152 28.7327C40.8928 27.758 42.083 27.2103 43.3239 27.2103C43.9399 27.2102 44.5497 27.3463 45.1179 27.6107C45.686 27.8751 46.201 28.2626 46.633 28.7504C47.0649 29.2381 47.4051 29.8167 47.6337 30.4519C47.8632 31.093 47.9753 31.7702 47.9646 32.451ZM43.3239 37.0473C43.8717 37.0499 44.4135 36.9333 44.9117 36.7054C45.4154 36.4764 45.8734 36.139 46.2595 35.7127C46.6454 35.2864 46.9517 34.7794 47.1607 34.2212C47.3707 33.6576 47.4779 33.061 47.4773 32.4596C47.5018 31.839 47.4126 31.2191 47.2139 30.6306C47.0158 30.0469 46.7135 29.5137 46.3251 29.0633C45.9368 28.6128 45.4702 28.2543 44.9537 28.0095C44.4435 27.7659 43.8855 27.6392 43.3201 27.6383C42.7548 27.6391 42.1967 27.7659 41.6864 28.0095C41.17 28.2543 40.7034 28.6128 40.3151 29.0633C39.9266 29.5137 39.6244 30.0469 39.4263 30.6306C39.2277 31.2191 39.1384 31.839 39.1629 32.4596C39.1561 33.0638 39.2593 33.6642 39.4674 34.2315C39.6746 34.7935 39.9814 35.3036 40.3696 35.7315C40.7576 36.1593 41.2191 36.4962 41.7265 36.7222C42.2285 36.9472 42.774 37.0582 43.3239 37.0473ZM5.31009 32.4167C5.31009 31.0494 5.79892 29.7384 6.6693 28.7717C7.53939 27.805 8.71992 27.2619 9.95058 27.2619C10.8792 27.2534 11.7893 27.5522 12.5647 28.12C13.3401 28.6878 13.9458 29.499 14.3047 30.4506C14.6637 31.4021 14.7596 32.4507 14.5804 33.4629C14.401 34.4752 13.9546 35.4052 13.2979 36.1347C12.6411 36.8641 11.8038 37.3601 10.8926 37.5592C9.98128 37.7584 9.03727 37.6519 8.18069 37.2531C7.32412 36.8544 6.59369 36.1816 6.08248 35.3203C5.5714 34.459 5.30249 33.4482 5.31009 32.4167ZM9.95058 37.0473C10.5009 37.0569 11.0466 36.9449 11.5486 36.7191C12.0561 36.492 12.5175 36.1542 12.9055 35.7258C13.2934 35.2973 13.6 34.7866 13.8073 34.2241C14.0153 33.6564 14.1184 33.0556 14.1117 32.451C14.1362 31.8304 14.0469 31.2105 13.8483 30.622C13.6503 30.0383 13.3479 29.5051 12.9596 29.0547C12.571 28.6042 12.1046 28.2457 11.5883 28.0009C11.078 27.7573 10.5199 27.6306 9.95452 27.6297C9.39291 27.6297 8.8372 27.7559 8.32078 28.0009C7.80436 28.2457 7.33791 28.6042 6.94947 29.0547C6.56103 29.5051 6.25875 30.0383 6.06065 30.622C5.86199 31.2105 5.77276 31.8304 5.79737 32.451C5.79526 33.0574 5.90156 33.6582 6.11035 34.2186C6.31901 34.779 6.62565 35.2877 7.01283 35.7153C7.4 36.1428 7.85969 36.4809 8.36527 36.7095C8.8653 36.937 9.40903 37.0522 9.95833 37.0473H9.95058Z" fill="#070606"/>
<path d="M26.5096 18.7307H1.35775C0.831755 18.7307 0.831755 18.7307 0.839639 18.1466C0.84756 15.234 1.08804 12.3266 1.5588 9.45228C1.67312 8.74818 1.83081 8.05352 2.03059 7.37321C2.14787 6.91324 2.40059 6.51016 2.74821 6.22829C3.09596 5.94643 3.51848 5.80212 3.94874 5.81817H39.3793C40.5402 5.75256 41.6782 6.19338 42.5504 7.04671C45.5329 9.89718 48.3126 12.9992 50.8647 16.3253C51.3228 16.9317 51.7125 17.5982 52.025 18.3098C52.2338 18.7737 52.2338 18.7737 51.7775 18.7737H26.5096V18.7307ZM14.3049 7.41615H4.95413C4.77618 7.38732 4.5938 7.40507 4.42475 7.46768C4.25099 7.53269 4.09572 7.63911 3.97239 7.7777C3.84339 7.92245 3.74813 8.09402 3.69348 8.28005C3.63686 8.47064 3.62103 8.67102 3.64702 8.86813V15.6723C3.64702 16.7806 4.04926 17.2188 5.03917 17.2188H23.6015C24.5915 17.2188 24.9937 16.772 24.9937 15.6723V8.96261C24.9937 7.86302 24.5915 7.41615 23.6015 7.41615H14.3049ZM39.7042 17.1844H46.7115C46.9651 17.2275 47.2243 17.1778 47.4504 17.0431C47.6763 16.9082 47.8567 16.6956 47.9644 16.4369C48.0584 16.1608 48.0699 15.8633 47.9975 15.5808C47.925 15.2989 47.7722 15.0507 47.5623 14.8733C45.5514 12.7084 43.5327 10.5778 41.5295 8.36987C41.2584 8.0659 40.9354 7.82501 40.5795 7.66141C40.2277 7.49856 39.8444 7.41484 39.4568 7.41615H32.697C32.5154 7.38601 32.3291 7.40347 32.1563 7.46684C31.9788 7.53249 31.82 7.64051 31.6937 7.78151C31.5615 7.92887 31.4638 8.10378 31.4076 8.29356C31.3494 8.48803 31.3328 8.69259 31.3589 8.8939V15.6981C31.3589 16.7549 31.7844 17.2188 32.7357 17.2188L39.7042 17.1844Z" fill="#F9F9F9"/>
<path d="M43.6256 4.01402L39.6966 3.8507L38.6834 3.81649C36.603 3.75637 34.5223 3.71343 32.4496 3.61882C30.3769 3.52449 28.1262 3.50717 25.9838 3.43846C23.1762 3.34399 20.3687 3.36976 17.5612 3.39552C15.3955 3.39552 13.2223 3.48141 11.0489 3.57588L6.50891 3.74764C4.73776 3.81649 2.97434 3.91955 1.14124 4.00543C1.32187 3.80325 1.55939 3.67598 1.81422 3.64458C3.44991 3.20573 5.11806 2.89834 6.80274 2.72535C8.92968 2.45039 11.0721 2.31298 13.2068 2.12403C13.7249 2.08109 14.2509 2.0725 14.7537 2.03815C15.8209 1.9693 16.8959 1.9693 17.971 1.90919C20.2913 1.78036 22.6657 1.8233 25.0169 1.86624C26.5174 1.86624 28.0257 1.86624 29.5261 1.94368C31.3358 2.01239 33.1379 2.08109 34.9401 2.20978C37.3635 2.30889 39.7749 2.63652 42.1483 3.18926C42.7125 3.26388 43.2352 3.55574 43.6256 4.01402Z" fill="#4E4F4E"/>
<path d="M48.5057 29.5127H52.9529C53.4402 29.5127 53.6027 29.7446 53.533 30.2602C53.4867 30.6037 53.417 30.9388 53.386 31.2824C53.3845 31.3644 53.3675 31.4454 53.3357 31.5209C53.305 31.5944 53.2598 31.6609 53.2028 31.7165C53.1481 31.7699 53.0823 31.8106 53.0101 31.8356C52.9396 31.8599 52.8644 31.8676 52.7904 31.858H49.3256C49.1554 31.858 49.109 31.7893 49.0858 31.6004C49.0006 30.8788 48.805 30.1747 48.5057 29.5127Z" fill="#FDFDFD"/>
<path d="M4.77578 29.5127C4.47678 30.1928 4.28126 30.9139 4.19572 31.6519C4.19572 31.8408 4.09505 31.8666 3.96369 31.858H1.10196C0.69198 31.858 0.521904 31.6347 0.51416 31.188V30.1999C0.51416 29.7274 0.69198 29.5213 1.1252 29.5127H4.77578Z" fill="#F9F9F9"/>
<path d="M43.3236 37.0471C42.773 37.058 42.2268 36.9468 41.7244 36.7214C41.2164 36.4947 40.7544 36.1571 40.3663 35.7282C39.9781 35.2995 39.6715 34.7884 39.4648 34.2254C39.2571 33.6572 39.1547 33.0558 39.1625 32.4509C39.1579 31.5356 39.3981 30.6394 39.8525 29.8759C40.3069 29.1124 40.9551 28.516 41.7151 28.1622C42.4749 27.8084 43.3123 27.7132 44.1211 27.8887C44.9298 28.0641 45.6733 28.5022 46.2576 29.1476C46.8419 29.793 47.2404 30.6165 47.4029 31.5138C47.5652 32.411 47.4843 33.3418 47.17 34.1878C46.8558 35.0338 46.3225 35.7572 45.6377 36.2663C44.9529 36.7753 44.1475 37.047 43.3236 37.0471ZM45.5511 32.4336C45.5597 32.1072 45.5082 31.7821 45.3989 31.4745C45.2929 31.1744 45.1296 30.8978 44.9181 30.66C44.7096 30.4277 44.4606 30.2449 44.1865 30.123C43.9154 30.0017 43.6205 29.9429 43.3236 29.9508C43.0234 29.942 42.725 29.999 42.4492 30.1177C42.1705 30.2369 41.916 30.4164 41.7001 30.6458C41.4811 30.8804 41.3087 31.1545 41.192 31.4535C41.0719 31.7605 41.0079 32.0867 41.0032 32.4164C41.0031 33.0882 41.2391 33.7336 41.6609 34.215C42.0827 34.6965 42.6571 34.9758 43.2617 34.9938C43.5686 35.0055 43.8742 34.9472 44.1553 34.8233C44.4394 34.6989 44.6973 34.5105 44.9129 34.2702C45.1286 34.03 45.2972 33.7428 45.4083 33.4267C45.5198 33.1079 45.5709 32.7711 45.5588 32.4336H45.5511ZM9.95799 37.0471C9.40733 37.0509 8.86254 36.934 8.36197 36.7045C7.85569 36.4737 7.39572 36.1333 7.00925 35.703C6.62264 35.2728 6.31698 34.7614 6.11015 34.1985C5.90244 33.6305 5.79895 33.0297 5.80464 32.425C5.78008 31.8043 5.86936 31.1844 6.06806 30.5959C6.26601 30.0124 6.56843 29.4792 6.95673 29.0288C7.34532 28.5783 7.81176 28.2198 8.32804 27.975C8.84461 27.73 9.40031 27.6037 9.96179 27.6037C10.5234 27.6037 11.0791 27.73 11.5955 27.975C12.112 28.2198 12.5785 28.5783 12.9668 29.0288C13.3553 29.4792 13.6576 30.0124 13.8555 30.5959C14.0536 31.1797 14.1432 31.8018 14.1189 32.425C14.1289 33.0318 14.028 33.6354 13.8214 34.2061C13.6156 34.7717 13.3095 35.2853 12.9212 35.7167C12.5329 36.1479 12.0706 36.4881 11.5615 36.7166C11.058 36.944 10.5104 37.0569 9.95799 37.0471ZM9.95799 34.9681C10.2658 34.9917 10.5747 34.9453 10.8657 34.8318C11.1567 34.7182 11.4239 34.5398 11.6507 34.3075C11.8774 34.0752 12.0592 33.7939 12.1847 33.4809C12.3109 33.1645 12.3772 32.8275 12.3804 32.4869C12.3845 32.1461 12.3254 31.8075 12.2061 31.4881C12.0906 31.177 11.9153 30.8914 11.6901 30.6475C11.4684 30.4093 11.2051 30.2238 10.9166 30.1026C10.6311 29.9817 10.3219 29.9269 10.0122 29.9422C9.7089 29.9308 9.40688 29.9873 9.12816 30.1074C8.84658 30.2279 8.58978 30.4104 8.3731 30.6438C8.1531 30.8827 7.98137 31.1618 7.86737 31.4659C7.74978 31.7779 7.69028 32.1087 7.69181 32.4421C7.70349 33.1036 7.94368 33.7347 8.36254 34.2049C8.78153 34.6751 9.34723 34.9482 9.9425 34.9681H9.95799Z" fill="#4E4F4E"/>
<path d="M14.3046 7.41609H23.5857C24.5757 7.41609 24.9778 7.86282 24.9778 8.96254V15.6722C24.9778 16.772 24.5757 17.2187 23.5857 17.2187H5.03908C4.04903 17.2187 3.64679 16.7806 3.64679 15.6722V8.86807C3.6208 8.67096 3.63663 8.47058 3.69325 8.27999C3.74794 8.09395 3.84325 7.92237 3.9723 7.77764C4.09559 7.63907 4.25082 7.53266 4.42452 7.46762C4.59357 7.405 4.77595 7.38725 4.9539 7.41609H14.3046ZM6.67085 16.6172H21.6677C20.8852 15.6321 20.1867 14.5832 19.5793 13.4815C18.6211 11.9349 17.8949 10.226 17.4293 8.42134C17.3519 8.07767 17.2591 7.96602 16.9343 7.96602H11.8993C11.4817 7.96602 11.2883 8.06908 11.2573 8.53299C11.2245 8.73665 11.1674 8.93565 11.0872 9.12572C10.4201 10.9711 9.52751 12.7056 8.43441 14.2805C7.88951 15.0909 7.30069 15.871 6.67085 16.6172ZM24.4597 12.3217V9.05702C24.4597 8.19791 24.2818 7.96588 23.5006 7.96588H18.5739C17.8006 7.96588 17.8006 7.96588 18.0479 8.82513C18.8511 11.3083 20.0425 13.6146 21.567 15.6379C22.3405 16.729 22.3405 16.7119 23.6012 16.7033C24.274 16.7033 24.483 16.4627 24.483 15.7066L24.4597 12.3217ZM4.14181 12.2702V15.8011C4.13166 15.9333 4.14941 16.0662 4.19391 16.1911C4.23673 16.3126 4.30614 16.4229 4.39707 16.5142C4.67138 16.6475 4.97579 16.7069 5.28011 16.6864C5.58267 16.6655 5.87637 16.5653 6.13725 16.3939C7.25303 15.125 8.2411 13.725 9.08402 12.2186C9.80121 11.0349 10.3709 9.74887 10.7777 8.39558C10.8629 8.07767 10.8397 7.9487 10.4917 7.95743H4.97713C4.34286 7.95743 4.14181 8.18932 4.14181 8.91101V12.2702ZM39.7039 17.1843H32.7431C31.7917 17.1843 31.3664 16.7204 31.3664 15.6637V8.89384C31.3402 8.69254 31.3568 8.48798 31.415 8.2935C31.4712 8.10374 31.569 7.92884 31.7011 7.78144C31.8274 7.6404 31.9862 7.53233 32.1638 7.46663C32.3366 7.40331 32.5229 7.38589 32.7045 7.41609H39.4564C39.8468 7.40961 40.2344 7.49071 40.5958 7.65459C40.9574 7.81847 41.2853 8.06162 41.5601 8.36981C43.5633 10.5434 45.582 12.6654 47.5929 14.8733C47.7976 15.0552 47.9442 15.3053 48.011 15.5869C48.0778 15.8685 48.0614 16.1664 47.9642 16.4369C47.8618 16.7003 47.6847 16.9192 47.4599 17.0605C47.235 17.2015 46.9748 17.2571 46.7189 17.2187L39.7039 17.1843ZM39.7039 16.6258H46.6648C47.0206 16.6258 47.3376 16.5829 47.4382 16.1362C47.5387 15.6894 47.4073 15.4661 47.1907 15.2427L41.2353 8.82513C40.994 8.54552 40.703 8.32476 40.3809 8.17693C40.0624 8.02981 39.7144 7.95766 39.3636 7.96602H32.774C32.0625 7.96602 31.8614 8.18932 31.8614 8.97972V15.6465C31.8614 16.4283 32.0625 16.6516 32.774 16.6516L39.7039 16.6258ZM45.5587 32.4336C45.5728 32.769 45.5245 33.104 45.4163 33.4217C45.3084 33.7368 45.1437 34.024 44.9319 34.2655C44.7203 34.5071 44.4663 34.6978 44.1857 34.8261C43.9083 34.9536 43.6057 35.0168 43.3004 35.0109C42.6957 34.9931 42.1213 34.7136 41.6995 34.2322C41.2777 33.7509 41.0417 33.1055 41.042 32.4336C41.0466 32.1039 41.1105 31.7777 41.2308 31.4707C41.3473 31.1716 41.5198 30.8974 41.7389 30.6629C41.9496 30.4372 42.2046 30.2575 42.4879 30.1349C42.7637 30.0161 43.0621 29.9591 43.3623 29.9679C43.6554 29.9648 43.9456 30.0266 44.2119 30.149C44.4814 30.272 44.7258 30.4539 44.9308 30.6839C45.1357 30.9139 45.2969 31.1873 45.4047 31.4879C45.5127 31.7885 45.5651 32.1101 45.5587 32.4336ZM45.0637 32.4336C45.0637 31.921 44.8804 31.4294 44.5541 31.0668C44.2277 30.7043 43.785 30.5007 43.3235 30.5007C42.902 30.5632 42.5151 30.7937 42.2351 31.1492C41.9549 31.5048 41.8005 31.9611 41.8005 32.4336C41.8005 32.9061 41.9549 33.3626 42.2351 33.7181C42.5151 34.0736 42.902 34.304 43.3235 34.3667C43.7791 34.3646 44.216 34.1649 44.5411 33.8103C44.8662 33.4556 45.0537 32.974 45.0637 32.468V32.4336ZM9.94257 34.968C9.3473 34.9483 8.7816 34.6752 8.3626 34.2049C7.94361 33.7348 7.70356 33.1036 7.69187 32.4422C7.69034 32.1088 7.74984 31.7778 7.86744 31.4658C7.98148 31.1618 8.15321 30.8827 8.37316 30.6439C8.5897 30.4104 8.84664 30.228 9.12823 30.1073C9.40981 29.9868 9.71054 29.9306 10.0121 29.9422C10.3205 29.9267 10.6281 29.9813 10.9167 30.1025C11.2052 30.2239 11.4683 30.4093 11.6901 30.6475C11.9118 30.8858 12.0875 31.1718 12.2062 31.4881C12.3249 31.8044 12.3843 32.1443 12.3805 32.487C12.3773 32.8275 12.3109 33.1645 12.1848 33.4808C12.0592 33.7939 11.8775 34.0752 11.6506 34.3076C11.424 34.5397 11.1568 34.7182 10.8657 34.8317C10.5773 34.9449 10.267 34.9915 9.95805 34.968H9.94257ZM9.94257 34.3495C10.3818 34.3716 10.8118 34.2058 11.1442 33.8862C11.4766 33.5664 11.686 33.1173 11.7291 32.6313C11.7562 32.3615 11.732 32.089 11.6577 31.8282C11.5855 31.573 11.4635 31.3346 11.2987 31.1268C11.1404 30.927 10.9409 30.7638 10.7138 30.6481C10.4938 30.5365 10.251 30.4773 10.0044 30.4749C9.76545 30.4603 9.5264 30.5014 9.30605 30.5949C9.07941 30.6916 8.8766 30.8366 8.71177 31.0198C8.54001 31.2105 8.40821 31.4337 8.32417 31.6762C8.23745 31.9248 8.19875 32.1877 8.21013 32.4508C8.19182 32.7053 8.22308 32.9613 8.30178 33.2012C8.37828 33.4372 8.50233 33.655 8.66629 33.8411C8.82778 34.0229 9.02249 34.1639 9.23734 34.2546C9.45233 34.3453 9.68224 34.3834 9.91159 34.3667L9.94257 34.3495Z" fill="#070606"/>
<path d="M24.4753 12.3216V15.6723C24.4753 16.4282 24.2666 16.6688 23.5937 16.6688C22.3484 16.6688 22.3329 16.6688 21.5596 15.6035C20.0349 13.5801 18.8437 11.2738 18.0405 8.79069C17.793 7.93158 17.8007 7.93158 18.5663 7.93158H23.5163C24.2898 7.93158 24.4753 8.1377 24.4753 9.02271V12.3216ZM4.14195 12.2701V8.91966C4.14195 8.1981 4.343 7.96607 4.97727 7.96607H10.4918C10.8398 7.96607 10.8631 8.08631 10.7779 8.40422C10.371 9.75765 9.80135 11.0436 9.08416 12.2273C8.2411 13.7337 7.25302 15.1338 6.13739 16.4026C5.8765 16.5739 5.58267 16.6742 5.28025 16.6951C4.97589 16.7156 4.67144 16.6563 4.39707 16.523C4.30617 16.4317 4.23676 16.3213 4.19391 16.1998C4.14942 16.0749 4.13167 15.9421 4.14181 15.8099L4.14195 12.2701ZM45.064 32.468C45.0539 32.974 44.8663 33.4555 44.5412 33.8102C44.2163 34.1648 43.7794 34.3645 43.3238 34.3666C42.8581 34.3666 42.4116 34.1612 42.0823 33.7954C41.753 33.4298 41.5681 32.9336 41.5681 32.4165C41.5681 31.8992 41.753 31.4032 42.0823 31.0374C42.4116 30.6717 42.8581 30.4662 43.3238 30.4662C43.5575 30.4661 43.789 30.5182 44.0043 30.6197C44.2233 30.724 44.4183 30.8727 44.5767 31.0564C44.7415 31.2475 44.8681 31.4684 44.9497 31.7072C45.0334 31.9496 45.0723 32.2084 45.064 32.468Z" fill="#F9F9F9"/>
<path d="M9.91158 34.3667C9.68234 34.3879 9.45135 34.3543 9.23762 34.2688C9.01798 34.1802 8.82093 34.0436 8.66093 33.869C8.49408 33.6871 8.36633 33.4729 8.28558 33.2396C8.20215 33.0002 8.16601 32.7469 8.17915 32.4938C8.16777 32.2307 8.20647 31.9678 8.29319 31.7192C8.37727 31.4767 8.50912 31.2535 8.68093 31.0628C8.84572 30.8796 9.04848 30.7346 9.27507 30.6379C9.49544 30.5445 9.73447 30.5034 9.97339 30.5179C10.2161 30.5202 10.4557 30.5786 10.6769 30.6893C10.898 30.8001 11.0961 30.9607 11.2584 31.1612C11.4206 31.3616 11.5435 31.5974 11.6192 31.8535C11.695 32.1094 11.7219 32.3802 11.6982 32.6485C11.6551 33.1345 11.4458 33.5837 11.1134 33.9034C10.7811 34.223 10.3509 34.3889 9.91158 34.3667Z" fill="#FDFDFD"/>
</svg>
